<svg xmlns="http://www.w3.org/2000/svg" viewBox="0 0 376.85 347.75"><defs><style>.cls-1{fill:none;}.cls-2{fill:#b2d237;}.cls-3{fill:#059bd8;}</style></defs><g id="Layer_2" data-name="Layer 2"><g id="Layer_1-2" data-name="Layer 1"><g id="Path_4339" data-name="Path 4339"><path class="cls-1" d="M197,311.07a143.93,143.93,0,0,1-15.76.87A142.38,142.38,0,0,1,38.82,170.08"/><path class="cls-1" d="M182.83,27.21A142.36,142.36,0,0,1,323.55,169.57q0,6.92-.65,13.68"/><path class="cls-2" d="M181.19,298.33A128.91,128.91,0,0,1,52.42,170.08H38.82A142.38,142.38,0,0,0,181.19,311.94a143.93,143.93,0,0,0,15.76-.87v-13.7A128.25,128.25,0,0,1,181.19,298.33Zm1.64-271.12v13.6A128.92,128.92,0,0,1,310,169.57q0,4.86-.36,9.64h13.65q.31-4.78.31-9.64A142.36,142.36,0,0,0,182.83,27.21Z"/></g><path class="cls-3" d="M86,159.28H4.45A4.46,4.46,0,0,1,0,154.82V4.46A4.45,4.45,0,0,1,4.45,0H167.82a4.45,4.45,0,0,1,4.45,4.45V89.28h-5.44V5.45H5.44V153.83H86Z"/><rect id="Rectangle_625" data-name="Rectangle 625" class="cls-3" x="31.8" y="82.03" width="127.67" height="3.92" rx="0.11"/><path id="Rectangle_626" data-name="Rectangle 626" class="cls-3" d="M31.84,108H86.09s0,0,0,.11v3.7c0,.06,0,.11,0,.11H31.84s0-.05,0-.11v-3.7C31.8,108,31.82,108,31.84,108Z"/><path class="cls-3" d="M172.27,34.46H0V3.88A3.89,3.89,0,0,1,3.89,0h164.5a3.88,3.88,0,0,1,3.88,3.88ZM5.45,29H166.83V5.44H5.45Z"/><rect id="Rectangle_624" data-name="Rectangle 624" class="cls-3" x="31.8" y="56.08" width="55.03" height="3.92" rx="0.11"/><rect id="Rectangle_627" data-name="Rectangle 627" class="cls-3" x="95.77" y="56.08" width="63.69" height="3.92" rx="0.11"/><path class="cls-2" d="M16.69,60.85a1.37,1.37,0,0,1-1-.4l-3.53-3.53A1.36,1.36,0,1,1,14.11,55l2.58,2.58L23.22,51A1.36,1.36,0,0,1,25.14,53l-7.49,7.49A1.35,1.35,0,0,1,16.69,60.85Z"/><path class="cls-2" d="M16.69,87.14a1.36,1.36,0,0,1-1-.4L12.19,83.2a1.36,1.36,0,0,1,1.92-1.92l2.58,2.58,6.53-6.54a1.36,1.36,0,0,1,1.92,1.93l-7.49,7.49A1.36,1.36,0,0,1,16.69,87.14Z"/><path class="cls-3" d="M23.41,115.05a1.34,1.34,0,0,1-1-.4L15,107.16a1.36,1.36,0,1,1,1.92-1.93l7.49,7.5a1.36,1.36,0,0,1,0,1.92A1.32,1.32,0,0,1,23.41,115.05Z"/><path class="cls-3" d="M16.31,115.05a1.36,1.36,0,0,1-1-2.32l7.5-7.5a1.36,1.36,0,1,1,1.92,1.93l-7.49,7.49A1.36,1.36,0,0,1,16.31,115.05Z"/><path class="cls-3" d="M197,252.36H96.88a4.46,4.46,0,0,1-4.45-4.45V97.54a4.46,4.46,0,0,1,4.45-4.45H260.25a4.45,4.45,0,0,1,4.45,4.45v81.67h-5.44V98.53H97.87V246.92H197Z"/><path class="cls-3" d="M264.7,127.55H92.44V97a3.89,3.89,0,0,1,3.88-3.89h164.5A3.89,3.89,0,0,1,264.7,97ZM97.88,122.1H259.26V98.52H97.88ZM260.82,98.52Z"/><rect id="Rectangle_631" data-name="Rectangle 631" class="cls-3" x="124.23" y="149.17" width="55.03" height="3.92" rx="0.11"/><rect id="Rectangle_632" data-name="Rectangle 632" class="cls-3" x="124.23" y="175.12" width="127.67" height="3.92" rx="0.11"/><path id="Rectangle_633" data-name="Rectangle 633" class="cls-3" d="M124.29,201.06h72.59s.07.05.07.11v3.7c0,.06,0,.11-.07.11H124.29s-.06,0-.06-.11v-3.7C124.23,201.11,124.26,201.06,124.29,201.06Z"/><rect id="Rectangle_634" data-name="Rectangle 634" class="cls-3" x="188.2" y="149.17" width="63.69" height="3.92" rx="0.11"/><path class="cls-2" d="M109.12,153.93h0a1.39,1.39,0,0,1-1-.39L104.62,150a1.36,1.36,0,0,1,0-1.92,1.34,1.34,0,0,1,1.92,0l2.58,2.57,6.53-6.53a1.36,1.36,0,1,1,1.92,1.92l-7.49,7.5A1.38,1.38,0,0,1,109.12,153.93Z"/><path class="cls-3" d="M115.84,208.13a1.32,1.32,0,0,1-1-.4l-7.49-7.49a1.36,1.36,0,1,1,1.92-1.92l7.49,7.49a1.36,1.36,0,0,1,0,1.92A1.32,1.32,0,0,1,115.84,208.13Z"/><path class="cls-3" d="M108.74,208.13a1.36,1.36,0,0,1-1-2.32l7.5-7.49a1.34,1.34,0,0,1,1.92,0,1.36,1.36,0,0,1,0,1.92l-7.49,7.49A1.36,1.36,0,0,1,108.74,208.13Z"/><path class="cls-3" d="M115.84,182a1.32,1.32,0,0,1-1-.4l-7.49-7.49a1.36,1.36,0,0,1,1.92-1.93l7.49,7.5a1.36,1.36,0,0,1,0,1.92A1.32,1.32,0,0,1,115.84,182Z"/><path class="cls-3" d="M108.74,182a1.36,1.36,0,0,1-1-2.32l7.5-7.5a1.36,1.36,0,0,1,1.92,1.93l-7.49,7.49A1.36,1.36,0,0,1,108.74,182Z"/><g id="Group_2310" data-name="Group 2310"><path class="cls-3" d="M372.4,347.75H209a4.46,4.46,0,0,1-4.46-4.45V192.93a4.46,4.46,0,0,1,4.46-4.45H372.4a4.46,4.46,0,0,1,4.45,4.45V343.3A4.45,4.45,0,0,1,372.4,347.75ZM210,342.31H371.41V193.92H210Z"/><path class="cls-2" d="M285.59,311.65h0a4.56,4.56,0,0,1-3.62-1.8l-21.85-29a4.53,4.53,0,1,1,7.24-5.45l18.23,24.2,42.69-56.66a4.53,4.53,0,1,1,7.24,5.46l-46.31,61.46A4.53,4.53,0,0,1,285.59,311.65Z"/><path class="cls-3" d="M376.85,222.94H204.58V192.36a3.88,3.88,0,0,1,3.88-3.88H373a3.89,3.89,0,0,1,3.89,3.88ZM210,217.5H371.41V193.92H210Z"/></g></g></g></svg>