<svg xmlns="http://www.w3.org/2000/svg" viewBox="0 0 505.92 346.72"><defs><style>.cls-1{fill:#059bd8;}.cls-2{fill:#b2d237;}</style></defs><g id="Layer_2" data-name="Layer 2"><g id="Layer_1-2" data-name="Layer 1"><path class="cls-1" d="M410.52,170.37h-6.6V96.59H322.51V90h83.06a5,5,0,0,1,4.95,4.94Z"/><path class="cls-1" d="M345,290.88H143.38a5,5,0,0,1-4.95-4.94V204H145v80.29H345Z"/><path class="cls-1" d="M336.3,346.72H212.65a5,5,0,0,1-5-5V327.09a5,5,0,0,1,5-4.94H336.3a5,5,0,0,1,4.95,4.94v14.68A5,5,0,0,1,336.3,346.72Zm-122-6.6H334.66V328.74H214.3Z"/><path class="cls-1" d="M304.35,328.5H244.6a5,5,0,0,1-4.94-4.95V289.36a5,5,0,0,1,4.94-4.95h59.75a5,5,0,0,1,4.95,4.95v34.19A5,5,0,0,1,304.35,328.5Zm-58.1-6.6H302.7V291H246.25Z"/><path class="cls-2" d="M274.48,278.47A11.47,11.47,0,1,1,286,267,11.48,11.48,0,0,1,274.48,278.47Zm0-18.54a7.07,7.07,0,1,0,7.07,7.07A7.08,7.08,0,0,0,274.48,259.93Z"/><path class="cls-1" d="M457.14,344.68H357.7a5,5,0,0,1-4.95-4.95V185A5,5,0,0,1,357.7,180h53.62v6.59h-52V338.08h96.14V297.35h6.59v42.38A5,5,0,0,1,457.14,344.68Z"/><path class="cls-1" d="M457.14,344.68H357.7a5,5,0,0,1-4.95-4.95V302.84a5,5,0,0,1,4.95-4.94h99.44a4.94,4.94,0,0,1,4.94,4.94v36.89A5,5,0,0,1,457.14,344.68Zm-97.79-6.6h96.14V304.49H359.35Z"/><path class="cls-2" d="M407.42,314.33a6.93,6.93,0,1,1-6.93,6.93,6.93,6.93,0,0,1,6.93-6.93m0-4.4a11.33,11.33,0,1,0,11.33,11.33,11.35,11.35,0,0,0-11.33-11.33Z"/><path class="cls-1" d="M308.56,192.08H117.9v-3.29H308.56V59.05H46.37v44.29H43.08V59.05a3.3,3.3,0,0,1,3.29-3.29H308.56a3.3,3.3,0,0,1,3.3,3.29V188.79A3.29,3.29,0,0,1,308.56,192.08Z"/><path class="cls-1" d="M308.57,46.26H46.38a3.3,3.3,0,0,1-3.3-3.3V3.3A3.3,3.3,0,0,1,46.38,0H308.57a3.3,3.3,0,0,1,3.3,3.3V43A3.3,3.3,0,0,1,308.57,46.26ZM46.38,3.3V43H308.57V3.3Z"/><circle class="cls-2" cx="219.4" cy="23.13" r="2.38"/><circle class="cls-2" cx="234.85" cy="23.13" r="2.38"/><circle class="cls-2" cx="250.3" cy="23.13" r="2.38"/><circle class="cls-2" cx="265.75" cy="23.13" r="2.38"/><path class="cls-1" d="M92.12,157.58l-6.9-4.33a57.32,57.32,0,0,0-59.61-.79l-6.33,3.75L27,116.66a5,5,0,0,1,4.86-4H77.25a5,5,0,0,1,4.8,3.76ZM54.76,137.89A63.75,63.75,0,0,1,82,144l-6-24.72H33.22l-4.74,24.28A63.86,63.86,0,0,1,54.76,137.89Z"/><path class="cls-1" d="M77.25,290.88H31.87a5,5,0,0,1-4.86-4l-7.73-39.56,6.33,3.75a57.32,57.32,0,0,0,59.61-.79l6.9-4.33L82.06,287.11A5,5,0,0,1,77.25,290.88Zm-44-6.59H76l6-24.72a64,64,0,0,1-53.52.44Z"/><path class="cls-2" d="M54.76,256.54a54.77,54.77,0,1,1,54.77-54.77A54.83,54.83,0,0,1,54.76,256.54Zm0-100.73a46,46,0,1,0,46,46A46,46,0,0,0,54.76,155.81Z"/><path class="cls-1" d="M502.62,138.21V278H428.94V138.21h73.68m1.65-3.29h-77a1.64,1.64,0,0,0-1.65,1.64V279.64a1.65,1.65,0,0,0,1.65,1.65h77a1.65,1.65,0,0,0,1.65-1.65V136.56a1.64,1.64,0,0,0-1.65-1.64Z"/><path class="cls-1" d="M502.62,101.9v23H428.94v-23h73.68m1.65-3.3h-77a1.65,1.65,0,0,0-1.65,1.65v26.29a1.64,1.64,0,0,0,1.65,1.64h77a1.64,1.64,0,0,0,1.65-1.64V100.25a1.65,1.65,0,0,0-1.65-1.65Z"/><rect class="cls-2" x="485.28" y="107.23" width="12.29" height="1.1"/><rect class="cls-2" x="485.28" y="111.9" width="12.29" height="1.1"/><rect class="cls-2" x="485.28" y="116.56" width="12.29" height="1.1"/><rect class="cls-2" x="434.23" y="112.28" width="25.36" height="2.22"/><rect class="cls-2" x="61.97" y="22.02" width="129.97" height="2.22"/></g></g></svg>