<svg xmlns="http://www.w3.org/2000/svg" viewBox="0 0 315.68 354.45"><defs><style>.cls-1,.cls-2,.cls-3,.cls-4{fill:none;}.cls-1{stroke:#b2d237;stroke-linecap:round;}.cls-1,.cls-3,.cls-4,.cls-6{stroke-linejoin:round;}.cls-1,.cls-2,.cls-3,.cls-6,.cls-7{stroke-width:6px;}.cls-2,.cls-3,.cls-6,.cls-7{stroke:#059bd8;}.cls-2,.cls-7{stroke-miterlimit:10;}.cls-4{stroke:#000;stroke-width:2.11px;}.cls-5,.cls-6{fill:#b2d237;}.cls-7{fill:#fff;}</style></defs><g id="Layer_2" data-name="Layer 2"><g id="Layer_1-2" data-name="Layer 1"><path class="cls-1" d="M128.27,340.07v-8.61a1.21,1.21,0,0,1,1.21-1.2H141a38.36,38.36,0,0,1,4.08-9.83l-8.14-8.14a1.18,1.18,0,0,1,0-1.7l12.17-12.16a1.18,1.18,0,0,1,1.68,0l8.14,8.14a38.14,38.14,0,0,1,9.85-4.08V291a1.2,1.2,0,0,1,1.19-1.21h17.2a1.21,1.21,0,0,1,1.2,1.21v11.5a38.22,38.22,0,0,1,9.84,4.08l8.14-8.14a1.19,1.19,0,0,1,1.69,0l12.17,12.16a1.2,1.2,0,0,1,0,1.7l-8.14,8.14a38.36,38.36,0,0,1,4.08,9.83h11.5a1.2,1.2,0,0,1,1.2,1.2v8.61"/><path class="cls-1" d="M163.05,340.07a15.51,15.51,0,1,1,31,0"/><path class="cls-1" d="M274.24,332.87h-8.73a1.2,1.2,0,0,1-1.2-1.2v-11.5a38.21,38.21,0,0,1-9.83-4.08l-8.14,8.14a1.2,1.2,0,0,1-1.7,0l-12.16-12.16a1.2,1.2,0,0,1,0-1.7l8.13-8.14a38.76,38.76,0,0,1-4.07-9.84H225a1.19,1.19,0,0,1-1.2-1.19V274a1.2,1.2,0,0,1,1.2-1.21h11.51a38.33,38.33,0,0,1,4.07-9.83l-8.13-8.13a1.2,1.2,0,0,1,0-1.7L244.64,241a1.2,1.2,0,0,1,1.7,0l8.12,8.12a38.64,38.64,0,0,1,9.85-4.08v-11.5a1.2,1.2,0,0,1,1.2-1.2h8.73"/><path class="cls-1" d="M274.24,298.09h-.13a15.5,15.5,0,1,1,0-31h.13"/><path class="cls-2" d="M32.19,208.43H290.5a0,0,0,0,1,0,0v141a2,2,0,0,1-2,2H34.19a2,2,0,0,1-2-2v-141a0,0,0,0,1,0,0Z"/><rect class="cls-2" x="52.93" y="101.62" width="37.47" height="107.66"/><rect class="cls-2" x="141.08" y="101.62" width="37.47" height="107.66"/><path class="cls-3" d="M212.54,85.18H227.6A3.35,3.35,0,0,1,231,88.53V209.29a0,0,0,0,1,0,0H209.19a0,0,0,0,1,0,0V88.53A3.35,3.35,0,0,1,212.54,85.18Z"/><path class="cls-3" d="M234.3,85.18h15.06a3.35,3.35,0,0,1,3.35,3.35V209.29a0,0,0,0,1,0,0H231a0,0,0,0,1,0,0V88.53A3.35,3.35,0,0,1,234.3,85.18Z"/><path class="cls-3" d="M256.06,85.18h15.06a3.35,3.35,0,0,1,3.35,3.35V209.29a0,0,0,0,1,0,0H252.71a0,0,0,0,1,0,0V88.53A3.35,3.35,0,0,1,256.06,85.18Z"/><path class="cls-4" d="M133.66,32c1.22-1.84,2.55-3.65,3.91-5.4C136.21,28.35,134.91,30.16,133.66,32Z"/><path class="cls-5" d="M191.5,57.68a34.36,34.36,0,0,1-.59,6.31l-.09.06c.92-10.84-56.36-10.37-53-37.24l-.21-.21a161.82,161.82,0,0,1,20.71-22S193.87,31.76,191.5,57.68Z"/><path class="cls-3" d="M191.5,57.68a34.55,34.55,0,0,1-.59,6.32,33.71,33.71,0,0,1-66.82-6.32c-.41-10.07,6-21.45,13.48-31.07a162.26,162.26,0,0,1,20.71-22S193.87,31.76,191.5,57.68Z"/><circle class="cls-5" cx="72.41" cy="42.67" r="8.64"/><rect class="cls-5" x="69.93" y="7.45" width="4.81" height="27.48"/><path class="cls-3" d="M72.49,3c0,10.37,19.56,33,33.23,44.78L88.63,97.83,54.7,97.59,39.49,48.25S72.65,13.29,72.49,3Z"/><polygon class="cls-3" points="274.24 209.29 208.95 209.29 208.95 83.4 241.71 7.45 274.24 83.4 274.24 209.29"/><polygon class="cls-6" points="258.45 46.52 224.86 46.52 241.72 7.46 258.45 46.52"/><rect class="cls-5" y="203.75" width="315.68" height="11.51" rx="1.43"/><rect class="cls-7" x="41.14" y="92.33" width="58.92" height="16.03" rx="1.4"/><rect class="cls-7" x="129.29" y="92.33" width="58.92" height="16.03" rx="1.4"/><polygon class="cls-6" points="258.45 46.52 224.86 46.52 241.72 7.46 258.45 46.52"/></g></g></svg>