<svg xmlns="http://www.w3.org/2000/svg" viewBox="0 0 406.42 335.99"><defs><style>.cls-1{fill:#059bd8;}.cls-2{fill:#b2d237;}</style></defs><g id="Layer_2" data-name="Layer 2"><g id="Layer_1-2" data-name="Layer 1"><path class="cls-1" d="M272.22,285.71H6c-3.38,0-6-2.31-6-5.25V103.29c0-2.94,2.65-5.24,6-5.24H119.61v6.41H6.41V279.3H271.83V224.08h6.41v56.38C278.24,283.4,275.6,285.71,272.22,285.71Z"/><path class="cls-1" d="M197.32,310.85H80.93c-2.49,0-4.44-2.3-4.44-5.24V279.3H201.76v26.31C201.76,308.55,199.81,310.85,197.32,310.85ZM82.9,304.44H195.35V285.71H82.9Z"/><path class="cls-1" d="M239.06,336H39.18a5.29,5.29,0,0,1-5.32-5.24V304.44H244.39v26.31A5.29,5.29,0,0,1,239.06,336ZM40.27,329.58H238V310.85H40.27Z"/><path class="cls-1" d="M272.22,285.72H6c-3.38,0-6-2.31-6-5.25V254.16H278.25v26.31C278.25,283.41,275.6,285.72,272.22,285.72ZM6.41,279.3H271.84V260.57H6.41Z"/><path class="cls-1" d="M188.26,203.22H140.19a4.27,4.27,0,0,1-4.27-4.27V67.57a4.27,4.27,0,0,1,4.27-4.27h48.07a4.28,4.28,0,0,1,4.27,4.27V199A4.27,4.27,0,0,1,188.26,203.22Zm-45.93-6.41h43.79V69.71H142.33Z"/><path class="cls-1" d="M286.38,203.22H238.31A4.27,4.27,0,0,1,234,199V4.27A4.27,4.27,0,0,1,238.31,0h48.07a4.27,4.27,0,0,1,4.27,4.27V199A4.27,4.27,0,0,1,286.38,203.22Zm-45.93-6.41h43.79V6.41H240.45Z"/><path class="cls-1" d="M379.8,203.22H331.73a4.27,4.27,0,0,1-4.27-4.27V124.56a4.27,4.27,0,0,1,4.27-4.27H379.8a4.27,4.27,0,0,1,4.27,4.27V199A4.27,4.27,0,0,1,379.8,203.22Zm-45.93-6.41h43.79V126.7H333.87Z"/><rect class="cls-2" x="104.66" y="196.33" width="301.76" height="13.72" rx="1.43"/></g></g></svg>