<svg xmlns="http://www.w3.org/2000/svg" viewBox="0 0 513.2 422.96"><defs><style>.cls-1,.cls-2{fill:none;}.cls-1,.cls-2,.cls-3{stroke:#059bd8;stroke-width:3px;}.cls-1,.cls-3{stroke-linecap:round;stroke-linejoin:round;}.cls-2{stroke-miterlimit:10;}.cls-3{fill:#fff;}</style></defs><g id="Layer_2" data-name="Layer 2"><g id="Layer_2-2" data-name="Layer 2"><rect class="cls-1" x="1.5" y="1.5" width="510.2" height="419.96"/><rect class="cls-1" x="1.5" y="1.5" width="510.2" height="53.44"/><circle class="cls-2" cx="27.27" cy="26.91" r="8.91"/><circle class="cls-2" cx="63.73" cy="26.91" r="8.91"/><circle class="cls-2" cx="100.18" cy="26.91" r="8.91"/><rect class="cls-1" x="249.37" y="159.91" width="245.01" height="225.91" transform="translate(743.74 545.73) rotate(-180)"/><rect class="cls-1" x="398.92" y="195.55" width="59.82" height="15.91" transform="translate(857.65 407) rotate(-180)"/><rect class="cls-1" x="398.92" y="231.13" width="59.82" height="15.91" transform="translate(857.65 478.16) rotate(-180)"/><rect class="cls-1" x="398.92" y="266.71" width="59.82" height="15.91" transform="translate(857.65 549.32) rotate(-180)"/><rect class="cls-1" x="398.92" y="302.29" width="59.82" height="15.91" transform="translate(857.65 620.48) rotate(-180)"/><rect class="cls-1" x="398.92" y="337.87" width="59.82" height="15.91" transform="translate(857.65 691.64) rotate(-180)"/><rect class="cls-1" x="19.91" y="92.29" width="245.01" height="225.91"/><rect class="cls-1" x="55.55" y="266.66" width="59.82" height="15.91"/><rect class="cls-1" x="55.55" y="231.08" width="59.82" height="15.91"/><rect class="cls-1" x="55.55" y="195.5" width="59.82" height="15.91"/><rect class="cls-1" x="55.55" y="159.92" width="59.82" height="15.91"/><rect class="cls-1" x="55.55" y="124.34" width="59.82" height="15.91"/><rect class="cls-3" x="133.55" y="123.64" width="246.92" height="230.37" transform="translate(514.01 477.64) rotate(-180)"/><path class="cls-1" d="M196.55,172.32l12.09,64.91,13.68-19.09,67.14,45.18,15.27-19.73,12.14,62.19a3,3,0,0,1-2.47,3.54L249.05,320l16.23-21.64-45.82-33.09"/></g></g></svg>