<svg xmlns="http://www.w3.org/2000/svg" viewBox="0 0 415.58 383.5"><defs><style>.cls-1{fill:none;}.cls-2{fill:#b2d237;}.cls-3{fill:#059bd8;}</style></defs><g id="Layer_2" data-name="Layer 2"><g id="Layer_1-2" data-name="Layer 1"><g id="Path_4339" data-name="Path 4339"><path class="cls-1" d="M217.19,343.05A157.13,157.13,0,0,1,42.81,187.57"/><path class="cls-1" d="M201.62,30A157,157,0,0,1,356.81,187q0,7.63-.72,15.09"/><path class="cls-2" d="M199.81,329c-78.11,0-141.69-63.39-142-141.43h-15A157.13,157.13,0,0,0,217.19,343.05V327.94A142.54,142.54,0,0,1,199.81,329Zm1.81-299V45c77.47,1,140.19,64.3,140.19,142q0,5.37-.4,10.63h15c.23-3.51.35-7.06.35-10.63A157,157,0,0,0,201.62,30Z"/></g><path class="cls-3" d="M94.86,175.65H4.91A4.92,4.92,0,0,1,0,170.74V4.92A4.91,4.91,0,0,1,4.91,0H185.07A4.91,4.91,0,0,1,190,4.92V98.46h-6V6H6V169.65H94.86Z"/><rect id="Rectangle_625" data-name="Rectangle 625" class="cls-3" x="35.07" y="90.46" width="140.79" height="4.32" rx="0.12"/><path id="Rectangle_626" data-name="Rectangle 626" class="cls-3" d="M35.12,119.08H94.94s0,.06,0,.12v4.08c0,.07,0,.12,0,.12H35.12s0-.05,0-.12V119.2C35.07,119.14,35.09,119.08,35.12,119.08Z"/><path class="cls-3" d="M190,38H0V4.28A4.29,4.29,0,0,1,4.29,0h181.4A4.29,4.29,0,0,1,190,4.28ZM6,32H184V6H6Z"/><rect id="Rectangle_624" data-name="Rectangle 624" class="cls-3" x="35.07" y="61.85" width="60.69" height="4.32" rx="0.12"/><rect id="Rectangle_627" data-name="Rectangle 627" class="cls-3" x="105.62" y="61.85" width="70.24" height="4.32" rx="0.12"/><path class="cls-2" d="M18.4,67.11a1.5,1.5,0,0,1-1.06-.44l-3.9-3.9a1.5,1.5,0,0,1,2.12-2.12l2.84,2.83,7.2-7.2a1.51,1.51,0,0,1,2.12,0,1.49,1.49,0,0,1,0,2.12l-8.26,8.27A1.5,1.5,0,0,1,18.4,67.11Z"/><path class="cls-2" d="M18.4,96.1a1.51,1.51,0,0,1-1.06-.44l-3.9-3.9a1.5,1.5,0,0,1,2.12-2.12l2.84,2.84,7.2-7.21a1.51,1.51,0,0,1,2.12,0,1.49,1.49,0,0,1,0,2.12l-8.26,8.27A1.49,1.49,0,0,1,18.4,96.1Z"/><path class="cls-3" d="M25.82,126.87a1.45,1.45,0,0,1-1.06-.44l-8.27-8.26a1.5,1.5,0,1,1,2.13-2.12l8.26,8.26a1.51,1.51,0,0,1,0,2.12A1.48,1.48,0,0,1,25.82,126.87Z"/><path class="cls-3" d="M18,126.87a1.47,1.47,0,0,1-1.06-.44,1.49,1.49,0,0,1,0-2.12l8.26-8.26a1.5,1.5,0,1,1,2.12,2.12L19,126.43A1.45,1.45,0,0,1,18,126.87Z"/><path class="cls-3" d="M217.19,278.3H106.84a4.92,4.92,0,0,1-4.91-4.91V107.57a4.91,4.91,0,0,1,4.91-4.91H287a4.91,4.91,0,0,1,4.91,4.91v90.06h-6v-89h-178V272.3H217.19Z"/><path class="cls-3" d="M291.91,140.66h-190V106.93a4.28,4.28,0,0,1,4.28-4.28H287.63a4.28,4.28,0,0,1,4.28,4.28Zm-184-6h178v-26h-178Zm179.69-26Z"/><rect id="Rectangle_631" data-name="Rectangle 631" class="cls-3" x="137" y="164.5" width="60.69" height="4.32" rx="0.12"/><rect id="Rectangle_632" data-name="Rectangle 632" class="cls-3" x="137" y="193.11" width="140.79" height="4.32" rx="0.12"/><path id="Rectangle_633" data-name="Rectangle 633" class="cls-3" d="M137.06,221.73h80.06s.07.05.07.12v4.08c0,.07,0,.12-.07.12H137.06s-.06-.05-.06-.12v-4.08C137,221.78,137,221.73,137.06,221.73Z"/><rect id="Rectangle_634" data-name="Rectangle 634" class="cls-3" x="207.55" y="164.5" width="70.24" height="4.32" rx="0.12"/><path class="cls-2" d="M120.33,169.76h0a1.5,1.5,0,0,1-1.06-.44l-3.9-3.9a1.52,1.52,0,0,1,0-2.13,1.5,1.5,0,0,1,2.12,0l2.84,2.83,7.2-7.2a1.5,1.5,0,0,1,2.13,2.12l-8.27,8.27A1.5,1.5,0,0,1,120.33,169.76Z"/><path class="cls-3" d="M127.75,229.52a1.45,1.45,0,0,1-1.06-.44l-8.27-8.26a1.51,1.51,0,0,1,0-2.12,1.49,1.49,0,0,1,2.12,0l8.27,8.26a1.51,1.51,0,0,1,0,2.12A1.48,1.48,0,0,1,127.75,229.52Z"/><path class="cls-3" d="M119.91,229.52a1.47,1.47,0,0,1-1.06-.44,1.49,1.49,0,0,1,0-2.12l8.26-8.26a1.5,1.5,0,1,1,2.13,2.12L121,229.08A1.47,1.47,0,0,1,119.91,229.52Z"/><path class="cls-3" d="M127.75,200.74a1.49,1.49,0,0,1-1.06-.44L118.42,192a1.5,1.5,0,0,1,2.12-2.13l8.27,8.27a1.51,1.51,0,0,1,0,2.12A1.53,1.53,0,0,1,127.75,200.74Z"/><path class="cls-3" d="M119.91,200.74a1.51,1.51,0,0,1-1.06-.44,1.49,1.49,0,0,1,0-2.12l8.26-8.27a1.51,1.51,0,1,1,2.13,2.13L121,200.3A1.51,1.51,0,0,1,119.91,200.74Z"/><g id="Group_2310" data-name="Group 2310"><path class="cls-3" d="M410.67,383.5H230.51a4.92,4.92,0,0,1-4.91-4.91V212.76a4.91,4.91,0,0,1,4.91-4.91H410.67a4.91,4.91,0,0,1,4.91,4.91V378.59A4.92,4.92,0,0,1,410.67,383.5Zm-179.07-6h178V213.85h-178Z"/><path class="cls-2" d="M315,343.69h0a5,5,0,0,1-4-2l-24.1-32a5,5,0,0,1,8-6L315,330.38,362,267.9a5,5,0,1,1,8,6l-51.07,67.77A5,5,0,0,1,315,343.69Z"/><path class="cls-3" d="M415.58,245.85h-190V212.13a4.28,4.28,0,0,1,4.28-4.28H411.3a4.28,4.28,0,0,1,4.28,4.28Zm-184-6h178v-26h-178Z"/></g></g></g></svg>