<?xml version="1.0" standalone="no"?>
<!DOCTYPE svg PUBLIC "-//W3C//DTD SVG 20010904//EN"
 "http://www.w3.org/TR/2001/REC-SVG-20010904/DTD/svg10.dtd">
<svg version="1.1" xmlns="http://www.w3.org/2000/svg" xmlns:xlink="http://www.w3.org/1999/xlink" x="0px" y="0px" width="420px"
	 height="342.4px" viewBox="0 0 420 342.4" style="overflow:visible;enable-background:new 0 0 420 342.4;" xml:space="preserve">
<style type="text/css">
	.st0{fill:#2BA2DC;}
	.st1{fill:#2AA2DC;}
</style>
<defs>
</defs>
<g>
	<path class="st0" d="M209.2,342.4c-9.9-37.1-27.2-69.9-57.4-94.6c-36.4-29.8-76.9-33.1-119.8-16.8c-8.2,3.1-16.1,7.1-23.9,10.5
		c-1.9-1.9-0.8-3.1,0-3.8c28.7-24.6,59-46.6,96-57.3c31.8-9.2,59.7,0.3,85.8,18.1c14.1,9.5,22.1,7.6,30.4-7.5
		c19.3-35.3,38.5-70.6,64.2-101.8C318.3,48.4,359.2,18,410.2,2c2.2-0.7,4.4-1.4,6.6-1.9c0.9-0.2,1.9,0.1,2.8,0.2
		c1.1,2.3-0.7,3-1.9,3.8c-58.8,34.5-98.8,86.4-132.3,143.9c-33.8,58.1-58.8,119.9-73.2,185.7c-0.6,2.9-0.8,5.8-1.1,8.8
		C210.5,342.4,209.9,342.4,209.2,342.4z"/>
	<path class="st1" d="M157.6,106.2c0.9-20.5,4.6-40.6,17.6-58c13.1-17.5,33-17.7,46.4-0.4c22.6,29.4,21.8,87.2-1.7,116
		c-13.3,16.4-32.1,16.1-45.1-0.5C161.9,146.5,158.2,127.1,157.6,106.2z"/>
	<path class="st0" d="M3.6,243.9c-0.6,1.2-1.7,1.6-3,1.2c-0.3-0.1-0.5-0.4-0.7-0.6c1-0.5,1.9-0.9,2.9-1.4
		C3.2,243.4,3.4,243.7,3.6,243.9z"/>
	<path class="st0" d="M2.9,243.2c0.4-0.8,0.9-1.5,2-1c-0.4,0.6-0.8,1.2-1.3,1.7C3.4,243.7,3.2,243.4,2.9,243.2z"/>
</g>
</svg>
