<svg xmlns="http://www.w3.org/2000/svg" viewBox="0 0 460.25 315.42"><defs><style>.cls-1{fill:#059bd8;}.cls-2{fill:#b2d237;}</style></defs><g id="Layer_2" data-name="Layer 2"><g id="Layer_1-2" data-name="Layer 1"><path class="cls-1" d="M373.46,155h-6V87.87H293.4v-6H369a4.51,4.51,0,0,1,4.5,4.5Z"/><path class="cls-1" d="M313.81,264.62H130.44a4.51,4.51,0,0,1-4.5-4.5V185.58h6v73H313.81Z"/><path class="cls-1" d="M305.94,315.42H193.45a4.51,4.51,0,0,1-4.5-4.5V297.56a4.51,4.51,0,0,1,4.5-4.5H305.94a4.51,4.51,0,0,1,4.5,4.5v13.36A4.51,4.51,0,0,1,305.94,315.42Zm-111-6H304.44V299.06H195Z"/><path class="cls-1" d="M276.87,298.84H222.52a4.51,4.51,0,0,1-4.5-4.5v-31.1a4.5,4.5,0,0,1,4.5-4.5h54.35a4.5,4.5,0,0,1,4.5,4.5v31.1A4.51,4.51,0,0,1,276.87,298.84Zm-52.85-6h51.35v-28.1H224Z"/><path class="cls-2" d="M249.7,253.33a10.44,10.44,0,1,1,10.43-10.43A10.45,10.45,0,0,1,249.7,253.33Zm0-16.87a6.44,6.44,0,1,0,6.43,6.44A6.45,6.45,0,0,0,249.7,236.46Z"/><path class="cls-1" d="M415.87,313.56H325.41a4.51,4.51,0,0,1-4.5-4.5V168.28a4.51,4.51,0,0,1,4.5-4.5h48.78v6H326.91V307.56h87.46V270.5h6v38.56A4.51,4.51,0,0,1,415.87,313.56Z"/><path class="cls-1" d="M415.87,313.56H325.41a4.51,4.51,0,0,1-4.5-4.5V275.5a4.51,4.51,0,0,1,4.5-4.5h90.46a4.51,4.51,0,0,1,4.5,4.5v33.56A4.51,4.51,0,0,1,415.87,313.56Zm-89-6h87.46V277H326.91Z"/><path class="cls-2" d="M370.64,286a6.31,6.31,0,1,1-6.31,6.31,6.31,6.31,0,0,1,6.31-6.31m0-4a10.31,10.31,0,1,0,10.3,10.31A10.33,10.33,0,0,0,370.64,282Z"/><path class="cls-1" d="M280.71,174.74H107.26v-3H280.71v-118H42.19V94h-3V53.72a3,3,0,0,1,3-3H280.71a3,3,0,0,1,3,3v118A3,3,0,0,1,280.71,174.74Z"/><path class="cls-1" d="M280.71,42.08H42.19a3,3,0,0,1-3-3V3a3,3,0,0,1,3-3H280.71a3,3,0,0,1,3,3V39.08A3,3,0,0,1,280.71,42.08ZM42.19,3V39.08H280.71V3Z"/><circle class="cls-2" cx="199.6" cy="21.04" r="2.16"/><circle class="cls-2" cx="213.65" cy="21.04" r="2.16"/><circle class="cls-2" cx="227.7" cy="21.04" r="2.16"/><circle class="cls-2" cx="241.76" cy="21.04" r="2.16"/><path class="cls-1" d="M83.8,143.36l-6.27-4a52.14,52.14,0,0,0-54.23-.72l-5.76,3.42,7-36A4.54,4.54,0,0,1,29,102.49H70.28a4.52,4.52,0,0,1,4.37,3.42Zm-34-17.92A58,58,0,0,1,74.6,131l-5.5-22.49H30.22L25.9,130.58A58.27,58.27,0,0,1,49.82,125.44Z"/><path class="cls-1" d="M70.28,264.62H29A4.51,4.51,0,0,1,24.58,261l-7-36,5.76,3.41a52.14,52.14,0,0,0,54.23-.72l6.27-3.94-9.15,37.43A4.51,4.51,0,0,1,70.28,264.62Zm-40.06-6H69.1l5.5-22.48a58.26,58.26,0,0,1-48.7.39Z"/><path class="cls-2" d="M49.82,233.38a49.82,49.82,0,1,1,49.82-49.82A49.88,49.88,0,0,1,49.82,233.38Zm0-91.64a41.82,41.82,0,1,0,41.82,41.82A41.87,41.87,0,0,0,49.82,141.74Z"/><path class="cls-1" d="M457.25,125.74V252.9h-67V125.74h67m1.5-3h-70a1.5,1.5,0,0,0-1.5,1.5V254.4a1.5,1.5,0,0,0,1.5,1.5h70a1.5,1.5,0,0,0,1.5-1.5V124.24a1.5,1.5,0,0,0-1.5-1.5Z"/><path class="cls-1" d="M457.25,92.7v20.91h-67V92.7h67m1.5-3h-70a1.5,1.5,0,0,0-1.5,1.5v23.91a1.5,1.5,0,0,0,1.5,1.5h70a1.5,1.5,0,0,0,1.5-1.5V91.2a1.5,1.5,0,0,0-1.5-1.5Z"/><rect class="cls-2" x="441.47" y="97.55" width="11.18" height="1"/><rect class="cls-2" x="441.47" y="101.8" width="11.18" height="1"/><rect class="cls-2" x="441.47" y="106.04" width="11.18" height="1"/><rect class="cls-2" x="395.03" y="102.14" width="23.07" height="2.02"/><rect class="cls-2" x="56.38" y="20.03" width="118.24" height="2.02"/></g></g></svg>