<svg xmlns="http://www.w3.org/2000/svg" viewBox="0 0 282.43 256.98"><defs><style>.cls-1{fill:#b2d237;}.cls-2{fill:#059bd8;}</style></defs><g id="Layer_2" data-name="Layer 2"><g id="Layer_1-2" data-name="Layer 1"><path class="cls-1" d="M201.43,246.79a3,3,0,0,1-3-3V238h-8.36a3,3,0,0,1-2.9-2.25,31.45,31.45,0,0,0-3.34-8,3,3,0,0,1,.47-3.64l5.92-5.92L182.06,210l-5.92,5.91a3,3,0,0,1-3.64.47,31.49,31.49,0,0,0-8-3.33,3,3,0,0,1-2.25-2.91V201.8H150.69v8.37a3,3,0,0,1-2.25,2.91,31.55,31.55,0,0,0-8,3.33,3,3,0,0,1-3.64-.47L130.85,210l-8.16,8.15,5.92,5.92a3,3,0,0,1,.47,3.64,31.45,31.45,0,0,0-3.34,8,3,3,0,0,1-2.9,2.25h-8.37v5.77a3,3,0,0,1-6,0v-7.7a4.08,4.08,0,0,1,4.08-4.07h8a38.24,38.24,0,0,1,2.18-5.27l-5.69-5.69a4,4,0,0,1,0-5.78L128,204.42a4,4,0,0,1,2.87-1.19h0a4,4,0,0,1,2.87,1.19l5.69,5.69a37.86,37.86,0,0,1,5.28-2.18v-8.05a4.08,4.08,0,0,1,4.07-4.08h15.38a4.08,4.08,0,0,1,4.08,4.08v8.05a37.24,37.24,0,0,1,5.27,2.18l5.69-5.69a4.08,4.08,0,0,1,5.76,0l10.88,10.88a4.06,4.06,0,0,1,0,5.76l-5.69,5.69a39.58,39.58,0,0,1,2.19,5.27h8a4.08,4.08,0,0,1,4.07,4.07v7.7A3,3,0,0,1,201.43,246.79Zm-80.07-27.27,0,0Zm0-2.72,0,0Zm59.39-8.14h0Zm2.72,0h0Zm-51.21,0h0Z"/><path class="cls-1" d="M170.33,246.79a3,3,0,0,1-3-3,10.88,10.88,0,1,0-21.75,0,3,3,0,0,1-6,0,16.88,16.88,0,1,1,33.75,0A3,3,0,0,1,170.33,246.79Z"/><path class="cls-1" d="M242.06,240.35h-7.81a4.07,4.07,0,0,1-4.07-4.07v-8a36.15,36.15,0,0,1-5.27-2.19l-5.69,5.69a4.07,4.07,0,0,1-5.77,0l-10.87-10.88a4.06,4.06,0,0,1,0-5.76l5.69-5.69a36.29,36.29,0,0,1-2.18-5.27H198a4.08,4.08,0,0,1-4.08-4.07V184.68A4.08,4.08,0,0,1,198,180.6h8a38.91,38.91,0,0,1,2.19-5.26l-5.69-5.69a4.07,4.07,0,0,1,0-5.76L213.46,153a4.07,4.07,0,0,1,5.76,0l5.68,5.68a37.86,37.86,0,0,1,5.28-2.18v-8a4.07,4.07,0,0,1,4.07-4.07h7.81a3,3,0,0,1,0,6h-5.88v8.36a3,3,0,0,1-2.25,2.91,31.35,31.35,0,0,0-8.05,3.33,3,3,0,0,1-3.63-.47l-5.91-5.9-8.16,8.15,5.92,5.92a3,3,0,0,1,.46,3.65,31,31,0,0,0-3.33,8,3,3,0,0,1-2.9,2.24H200v11.54h8.37a3,3,0,0,1,2.9,2.24,31.89,31.89,0,0,0,3.33,8,3,3,0,0,1-.46,3.64L208.18,218l8.16,8.16,5.92-5.92a3,3,0,0,1,3.64-.46,31.64,31.64,0,0,0,8,3.33,3,3,0,0,1,2.25,2.9v8.36h5.88a3,3,0,0,1,0,6ZM215,227.5h0Zm2.72,0Z"/><path class="cls-1" d="M242.06,209.24H242a16.87,16.87,0,1,1,0-33.74h.11a3,3,0,0,1,0,6H242a10.87,10.87,0,1,0,0,21.74h.11a3,3,0,0,1,0,6Z"/><path class="cls-2" d="M254.61,257H27.51a5,5,0,0,1-5-5V123h237.1V252A5,5,0,0,1,254.61,257Zm-226.1-6h225.1V129H28.51Z"/><rect class="cls-2" x="33.52" y="82.92" width="52.71" height="14.34" rx="1.4"/><path class="cls-2" d="M80.59,126.57H41.06V88.23H80.59Zm-33.53-6H74.59V94.23H47.06Z"/><rect class="cls-2" x="112.38" y="82.92" width="52.71" height="14.34" rx="1.4"/><path class="cls-2" d="M159.45,126.57H119.92V88.23h39.53Zm-33.53-6h27.53V94.23H125.92Z"/><path class="cls-1" d="M230.8,34.79H195L207.06,18.4a7.24,7.24,0,0,1,5.88-3h0a7.27,7.27,0,0,1,5.89,3Zm-23.94-6H219L214,22a1.28,1.28,0,0,0-1.05-.54h0a1.28,1.28,0,0,0-1.05.54Z"/><path class="cls-2" d="M203.33,123.08H183.86a3,3,0,0,1-3-3V63.72a6.36,6.36,0,0,1,6.35-6.35H200a6.36,6.36,0,0,1,6.35,6.35v56.36A3,3,0,0,1,203.33,123.08Zm-16.47-6h13.47V63.72a.35.35,0,0,0-.35-.35H187.21a.35.35,0,0,0-.35.35Z"/><path class="cls-2" d="M222.8,123.08H203.33a3,3,0,0,1-3-3V63.72a6.36,6.36,0,0,1,6.35-6.35h12.77a6.36,6.36,0,0,1,6.35,6.35v56.36A3,3,0,0,1,222.8,123.08Zm-16.47-6H219.8V63.72a.35.35,0,0,0-.35-.35H206.68a.35.35,0,0,0-.35.35Z"/><path class="cls-2" d="M242.27,123.08H222.8a3,3,0,0,1-3-3V63.72a6.36,6.36,0,0,1,6.35-6.35h12.77a6.36,6.36,0,0,1,6.35,6.35v56.36A3,3,0,0,1,242.27,123.08Zm-16.47-6h13.47V63.72a.35.35,0,0,0-.35-.35H226.15a.35.35,0,0,0-.35.35Z"/><path d="M116.29,30a1.1,1.1,0,0,1-.59-.18,1.06,1.06,0,0,1-.29-1.46c1-1.51,2.16-3.11,3.55-4.89a1.06,1.06,0,0,1,1.67,1.3c-1.16,1.48-2.32,3.08-3.46,4.76A1.05,1.05,0,0,1,116.29,30Z"/><path class="cls-1" d="M164,63.53l.44-6.07c-.91-1.72-8.87-4.1-14.15-5.68-14.5-4.34-34.2-10.23-33.41-26.34l-1.06-1.06,1.6-2.09a146.78,146.78,0,0,1,19-20.1L138.22.62l1.92,1.47c1.35,1,33,25.45,30.9,50a33.65,33.65,0,0,1-.59,6.07l-.23,1.23Zm.45-6.16h0ZM122.92,25C121.81,36.06,135.44,41.07,152,46c5.27,1.57,9.84,2.94,13.12,4.62.8-17.84-20.17-36.79-26.7-42.24A143.61,143.61,0,0,0,122.92,25Z"/><path class="cls-2" d="M137.9,85.06A33.19,33.19,0,0,1,104.73,52c-.32-8.39,3.94-18.38,12.68-29.69a145.67,145.67,0,0,1,19-20.1,3,3,0,0,1,3.77-.1c1.35,1,33,25.45,30.9,50a34.91,34.91,0,0,1-.58,6.06A33.16,33.16,0,0,1,137.9,85.06Zm.51-76.65A142.33,142.33,0,0,0,122.17,26c-7.77,10.06-11.73,19-11.45,25.85a.49.49,0,0,1,0,.12A27.16,27.16,0,0,0,164.56,57a27.57,27.57,0,0,0,.48-5.09,2.44,2.44,0,0,1,0-.27C166.7,33.55,145.07,14,138.41,8.41Z"/><path class="cls-1" d="M61.49,49.23A10.74,10.74,0,1,1,72.22,38.5,10.75,10.75,0,0,1,61.49,49.23Zm0-15.47a4.74,4.74,0,1,0,4.73,4.74A4.74,4.74,0,0,0,61.49,33.76Z"/><rect class="cls-1" x="59.27" y="6.98" width="4.3" height="24.58"/><path class="cls-2" d="M76,90.84h0l-30.37-.21a3,3,0,0,1-2.84-2.12L29.18,44.37a3,3,0,0,1,.69-2.95C44,26.54,58.52,8.19,58.56,3.11V3a3,3,0,0,1,6,0v.11C64.64,10.45,80,29.38,93.25,40.79A3,3,0,0,1,94.13,44L78.85,88.81A3,3,0,0,1,76,90.84Zm-28.15-6.2,26,.18L87.81,44c-7.84-7.06-21-20.9-26.57-32C54.79,23.16,40.73,38.6,35.42,44.27Z"/><path class="cls-2" d="M242.06,124.35H183.65a3,3,0,0,1-3-3V55.29a3,3,0,0,1,.58-1.77l29.31-39.86A3,3,0,0,1,213,12.44h0a3,3,0,0,1,2.41,1.23l29.1,39.85a3,3,0,0,1,.58,1.77v66.06A3,3,0,0,1,242.06,124.35Zm-55.41-6h52.41V56.27L213,20.52l-26.3,35.76Z"/><rect class="cls-2" x="180.56" y="54.32" width="64.42" height="8.8"/><rect class="cls-1" y="117.14" width="282.43" height="12.84" rx="1.43"/></g></g></svg>