<svg xmlns="http://www.w3.org/2000/svg" viewBox="0 0 380.38 314.47"><defs><style>.cls-1{fill:#059bd8;}.cls-2{fill:#b2d237;}</style></defs><g id="Layer_2" data-name="Layer 2"><g id="Layer_1-2" data-name="Layer 1"><path class="cls-1" d="M254.78,267.4H5.64c-3.16,0-5.64-2.15-5.64-4.91V96.67c0-2.75,2.48-4.9,5.64-4.9H112v6H6V261.4H254.42V209.73h6v52.76C260.42,265.25,257.94,267.4,254.78,267.4Z"/><path class="cls-1" d="M184.68,290.94H75.74c-2.33,0-4.15-2.16-4.15-4.91V261.41H188.83V286C188.83,288.78,187,290.94,184.68,290.94Zm-107.09-6H182.83V267.41H77.59Z"/><path class="cls-1" d="M223.75,314.47H36.67a5,5,0,0,1-5-4.91V284.94h197v24.62A5,5,0,0,1,223.75,314.47Zm-186.06-6h185V290.94h-185Z"/><path class="cls-1" d="M254.78,267.41H5.64c-3.16,0-5.64-2.16-5.64-4.91V237.88H260.42V262.5C260.42,265.25,258,267.41,254.78,267.41ZM6,261.41H254.42V243.88H6Z"/><path class="cls-1" d="M176.2,190.2h-45a4,4,0,0,1-4-4V63.25a4,4,0,0,1,4-4h45a4,4,0,0,1,4,4v123A4,4,0,0,1,176.2,190.2Zm-43-6h41V65.25h-41Z"/><path class="cls-1" d="M268,190.2H223a4,4,0,0,1-4-4V4a4,4,0,0,1,4-4h45a4,4,0,0,1,4,4V186.2A4,4,0,0,1,268,190.2Zm-43-6h41V6H225Z"/><path class="cls-1" d="M355.47,190.2h-45a4,4,0,0,1-4-4V116.58a4,4,0,0,1,4-4h45a4,4,0,0,1,4,4V186.2A4,4,0,0,1,355.47,190.2Zm-43-6h41V118.58h-41Z"/><rect class="cls-2" x="97.96" y="183.76" width="282.43" height="12.84" rx="1.43"/></g></g></svg>